<svg xmlns="http://www.w3.org/2000/svg" viewBox="0 0 82.45 100.59">
<defs>
    <style>
        * {fill: #2646FF};
    </style>
</defs>
<rect class="cls-1" width="28.78" height="28.62"/>
<rect class="cls-1" y="32.13" width="28.78" height="68.46"/>
<path class="cls-1" d="M82.22,66.75c-1-10-5.77-15.69-12.89-19v-.65c7.29-4.7,11.34-10.69,11.34-20.74C80.67,8.42,69.33,0,45.19,0H32.25V66.75Z"/>
<path class="cls-2" d="M82.22,66.75c-1-10-5.77-15.69-12.89-19v-.65c7.29-4.7,11.34-10.69,11.34-20.74C80.67,8.42,69.33,0,45.19,0H32.25V66.75Z"/>
<path class="cls-1" d="M82.43,70.21H32.25v30.38H45.84c26.57,0,36.61-11.18,36.61-29.48C82.45,70.8,82.44,70.51,82.43,70.21Z"/>
<rect class="cls-2" width="28.78" height="28.62"/><rect class="cls-2" y="32.13" width="28.78" height="68.46"/>
<path class="cls-2" d="M82.43,70.21H32.25v30.38H45.84c26.57,0,36.61-11.18,36.61-29.48C82.45,70.8,82.44,70.51,82.43,70.21Z"/>
</svg>